<svg width="350" height="350" viewBox="0 0 350 350" fill="none" xmlns="http://www.w3.org/2000/svg">
<path d="M21.2226 208.223C23.1831 213.168 23.6196 218.587 22.4759 223.783L8.27588 267.649C7.81834 269.874 7.93664 272.178 8.61956 274.345C9.30248 276.511 10.5274 278.466 12.1781 280.026C13.8288 281.586 15.8507 282.699 18.0519 283.258C20.2531 283.817 22.5607 283.805 24.7559 283.223L70.2625 269.916C75.1654 268.943 80.2429 269.368 84.9159 271.143C113.388 284.439 145.641 287.252 175.985 279.086C206.328 270.919 232.813 252.298 250.765 226.507C268.718 200.717 276.984 169.415 274.107 138.123C271.229 106.832 257.392 77.5622 235.037 55.4785C212.682 33.3949 183.245 19.9164 151.921 17.4212C120.597 14.926 89.3977 23.5743 63.8284 41.8404C38.2592 60.1065 19.963 86.8165 12.1678 117.258C4.37262 147.699 7.57947 179.915 21.2226 208.223Z" fill="#8A6BFF"/>
<path d="M266.222 320.445C271.167 318.485 276.586 318.048 281.782 319.192L325.648 333.392C327.873 333.849 330.178 333.731 332.344 333.048C334.51 332.365 336.466 331.14 338.025 329.49C339.585 327.839 340.698 325.817 341.257 323.616C341.816 321.415 341.804 319.107 341.222 316.912L327.915 271.405C326.943 266.502 327.368 261.425 329.142 256.752C342.438 228.28 345.251 196.027 337.085 165.683C328.918 135.339 310.297 108.855 284.507 90.9026C258.716 72.9503 227.414 64.6837 196.122 67.5613C164.831 70.439 135.561 84.276 113.478 106.631C91.3941 128.986 77.9156 158.423 75.4204 189.747C72.9252 221.071 81.5735 252.27 99.8396 277.839C118.106 303.409 144.816 321.705 175.257 329.5C205.698 337.295 237.914 334.088 266.222 320.445Z" fill="#6C4EFF"/>
</svg>
